<svg aria-hidden="true" style="position: absolute; width: 0; height: 0; overflow: hidden;" version="1.1" xmlns="http://www.w3.org/2000/svg" xmlns:xlink="http://www.w3.org/1999/xlink">
<defs>
<symbol id="icon-pencil" viewBox="0 0 32 32">
<path fill="none" stroke="#fff" stroke-width="2" stroke-miterlimit="4" stroke-linecap="round" stroke-linejoin="round" style="stroke: var(--color1, #fff)" d="M22.482 5.982l2.25-2.25c0.976-0.976 2.559-0.976 3.535 0s0.976 2.559 0 3.536l-19.158 19.158c-0.705 0.705-1.574 1.223-2.53 1.508l-3.58 1.066 1.066-3.58c0.285-0.955 0.803-1.825 1.508-2.53l16.908-16.908zM22.482 5.982l3.518 3.518"></path>
</symbol>
<symbol id="icon-x-mark" viewBox="0 0 32 32">
<path fill="none" stroke="#fff" stroke-width="2" stroke-miterlimit="4" stroke-linecap="round" stroke-linejoin="round" style="stroke: var(--color1, #fff)" d="M8 24l16-16M8 8l16 16"></path>
</symbol>
<symbol id="icon-check-circle" viewBox="0 0 32 32">
<path stroke-width="2" stroke-miterlimit="4" stroke-linecap="round" stroke-linejoin="round" d="M12 17l3 3 5-7M28 16c0 6.627-5.373 12-12 12s-12-5.373-12-12c0-6.627 5.373-12 12-12s12 5.373 12 12z"></path>
</symbol>
<symbol id="icon-circle" viewBox="0 0 32 32">
<path fill="none" stroke="#fff" stroke-width="2.4" stroke-miterlimit="4" stroke-linecap="butt" stroke-linejoin="miter" style="stroke: var(--color1, #fff)" d="M30.8 16c0 8.174-6.626 14.8-14.8 14.8s-14.8-6.626-14.8-14.8c0-8.174 6.626-14.8 14.8-14.8s14.8 6.626 14.8 14.8z"></path>
</symbol>
<symbol id="icon-plus" viewBox="0 0 32 32">
<path fill="none" stroke="#fff" stroke-width="2" stroke-miterlimit="4" stroke-linecap="round" stroke-linejoin="round" style="stroke: var(--color1, #fff)" d="M16 6v20M26 16h-20"></path>
</symbol>
<symbol id="icon-plus-circle" viewBox="0 0 32 32">
<path fill="none" stroke="#636366" stroke-width="0.6234" stroke-miterlimit="4" stroke-linecap="round" stroke-linejoin="round" style="stroke: var(--color2, #636366)" d="M15.896 10.701v10.39M21.091 15.896h-10.39M31.481 15.896c0 8.607-6.977 15.584-15.584 15.584s-15.584-6.977-15.584-15.584c0-8.607 6.977-15.584 15.584-15.584s15.584 6.977 15.584 15.584z"></path>
</symbol>
<symbol id="icon-magnifying-glass" viewBox="0 0 32 32">
<path fill="none" stroke="#fff" stroke-width="2" stroke-miterlimit="4" stroke-linecap="round" stroke-linejoin="round" style="stroke: var(--color1, #fff)" d="M28 28l-6.929-6.929M21.071 21.071c1.81-1.81 2.929-4.31 2.929-7.071 0-5.523-4.477-10-10-10s-10 4.477-10 10c0 5.523 4.477 10 10 10 2.761 0 5.261-1.119 7.071-2.929z"></path>
</symbol>
<symbol id="icon-text-todo" viewBox="0 0 55 32">
<path fill="#fff" style="fill: var(--color1, #fff)" d="M8.045 23.026c-0.968 0-1.781-0.161-2.441-0.484-0.645-0.323-1.129-0.793-1.452-1.41-0.309-0.617-0.463-1.396-0.463-2.336v-3.956h-0.884c-0.393 0-0.701-0.105-0.926-0.316-0.21-0.21-0.316-0.498-0.316-0.863 0-0.393 0.105-0.687 0.316-0.884 0.224-0.21 0.533-0.316 0.926-0.316h0.884v-1.599c0-0.533 0.14-0.933 0.421-1.199 0.281-0.281 0.673-0.421 1.178-0.421 0.519 0 0.912 0.14 1.178 0.421 0.267 0.267 0.4 0.666 0.4 1.199v1.599h1.999c0.393 0 0.694 0.105 0.905 0.316 0.21 0.196 0.316 0.491 0.316 0.884 0 0.365-0.105 0.652-0.316 0.863s-0.512 0.316-0.905 0.316h-1.999v3.829c0 0.589 0.133 1.031 0.4 1.326 0.281 0.295 0.722 0.442 1.326 0.442 0.21 0 0.407-0.021 0.589-0.063s0.351-0.070 0.505-0.084c0.196-0.014 0.358 0.049 0.484 0.189 0.126 0.126 0.189 0.414 0.189 0.863 0 0.337-0.056 0.631-0.168 0.884s-0.309 0.435-0.589 0.547c-0.182 0.070-0.435 0.126-0.757 0.168-0.309 0.056-0.575 0.084-0.8 0.084zM16.344 23.026c-1.108 0-2.076-0.217-2.904-0.652-0.814-0.435-1.445-1.059-1.894-1.873s-0.673-1.774-0.673-2.883c0-0.828 0.126-1.571 0.379-2.23s0.617-1.22 1.094-1.683c0.491-0.477 1.073-0.835 1.746-1.073 0.673-0.252 1.424-0.379 2.251-0.379 1.108 0 2.069 0.217 2.883 0.652 0.828 0.435 1.466 1.052 1.915 1.852 0.463 0.8 0.694 1.753 0.694 2.862 0 0.842-0.133 1.592-0.4 2.251-0.253 0.659-0.617 1.227-1.094 1.704s-1.059 0.842-1.746 1.094c-0.673 0.238-1.424 0.358-2.251 0.358zM16.344 20.648c0.463 0 0.863-0.112 1.199-0.337s0.603-0.554 0.8-0.989c0.196-0.449 0.295-1.017 0.295-1.704 0-1.024-0.21-1.774-0.631-2.251-0.421-0.491-0.975-0.736-1.662-0.736-0.449 0-0.849 0.105-1.199 0.316-0.337 0.21-0.603 0.54-0.8 0.989-0.182 0.435-0.274 0.996-0.274 1.683 0 1.024 0.21 1.788 0.631 2.293 0.421 0.491 0.968 0.736 1.641 0.736z"></path>
<path fill="#764ff7" style="fill: var(--color3, #764ff7)" d="M28.034 23.026c-0.898 0-1.69-0.217-2.378-0.652-0.673-0.435-1.199-1.059-1.578-1.873s-0.568-1.774-0.568-2.883c0-1.108 0.189-2.062 0.568-2.862s0.905-1.417 1.578-1.852c0.687-0.435 1.48-0.652 2.378-0.652 0.814 0 1.529 0.196 2.146 0.589 0.631 0.393 1.059 0.905 1.284 1.536h-0.231v-4.987c0-0.533 0.133-0.933 0.4-1.199 0.267-0.281 0.659-0.421 1.178-0.421 0.505 0 0.898 0.14 1.178 0.421 0.281 0.267 0.421 0.666 0.421 1.199v11.972c0 0.519-0.14 0.919-0.421 1.199-0.267 0.281-0.652 0.421-1.157 0.421s-0.898-0.14-1.178-0.421c-0.267-0.281-0.4-0.68-0.4-1.199v-1.431l0.231 0.821c-0.196 0.687-0.617 1.241-1.262 1.662-0.631 0.407-1.361 0.61-2.188 0.61zM28.981 20.648c0.463 0 0.863-0.112 1.199-0.337s0.603-0.554 0.8-0.989c0.196-0.449 0.295-1.017 0.295-1.704 0-1.024-0.21-1.774-0.631-2.251-0.421-0.491-0.975-0.736-1.662-0.736-0.449 0-0.849 0.105-1.199 0.316-0.337 0.21-0.603 0.54-0.8 0.989-0.182 0.435-0.274 0.996-0.274 1.683 0 1.024 0.21 1.788 0.631 2.293 0.421 0.491 0.968 0.736 1.641 0.736zM41.823 23.026c-1.108 0-2.076-0.217-2.904-0.652-0.814-0.435-1.445-1.059-1.894-1.873s-0.673-1.774-0.673-2.883c0-0.828 0.126-1.571 0.379-2.23s0.617-1.22 1.094-1.683c0.491-0.477 1.073-0.835 1.746-1.073 0.673-0.252 1.424-0.379 2.251-0.379 1.108 0 2.069 0.217 2.883 0.652 0.828 0.435 1.466 1.052 1.915 1.852 0.463 0.8 0.694 1.753 0.694 2.862 0 0.842-0.133 1.592-0.4 2.251-0.252 0.659-0.617 1.227-1.094 1.704s-1.059 0.842-1.746 1.094c-0.673 0.238-1.424 0.358-2.251 0.358zM41.823 20.648c0.463 0 0.863-0.112 1.199-0.337s0.603-0.554 0.8-0.989c0.196-0.449 0.295-1.017 0.295-1.704 0-1.024-0.21-1.774-0.631-2.251-0.421-0.491-0.975-0.736-1.662-0.736-0.449 0-0.849 0.105-1.199 0.316-0.337 0.21-0.603 0.54-0.8 0.989-0.182 0.435-0.274 0.996-0.274 1.683 0 1.024 0.21 1.788 0.631 2.293 0.421 0.491 0.968 0.736 1.641 0.736zM50.455 22.9c-0.561 0-1.010-0.168-1.347-0.505-0.323-0.337-0.484-0.771-0.484-1.305 0-0.519 0.161-0.94 0.484-1.262 0.337-0.337 0.786-0.505 1.347-0.505s0.996 0.168 1.305 0.505c0.323 0.323 0.484 0.743 0.484 1.262 0 0.533-0.161 0.968-0.484 1.305-0.309 0.337-0.743 0.505-1.305 0.505z"></path>
</symbol>
</defs>
</svg>
